<?xml version="1.0" encoding="UTF-8" standalone="no"?>
<!-- Created with Inkscape (http://www.inkscape.org/) -->

<svg
   width="512"
   height="512"
   viewBox="0 0 512 512"
   version="1.1"
   id="svg1"
   xml:space="preserve"
   inkscape:version="1.4 (e7c3feb100, 2024-10-09)"
   sodipodi:docname="NoProfillePic.svg"
   xmlns:inkscape="http://www.inkscape.org/namespaces/inkscape"
   xmlns:sodipodi="http://sodipodi.sourceforge.net/DTD/sodipodi-0.dtd"
   xmlns="http://www.w3.org/2000/svg"
   xmlns:svg="http://www.w3.org/2000/svg"><sodipodi:namedview
     id="namedview1"
     pagecolor="#ffffff"
     bordercolor="#999999"
     borderopacity="1"
     inkscape:showpageshadow="2"
     inkscape:pageopacity="0"
     inkscape:pagecheckerboard="0"
     inkscape:deskcolor="#d1d1d1"
     inkscape:document-units="px"
     inkscape:zoom="1"
     inkscape:cx="252"
     inkscape:cy="227"
     inkscape:window-width="1920"
     inkscape:window-height="1131"
     inkscape:window-x="0"
     inkscape:window-y="0"
     inkscape:window-maximized="1"
     inkscape:current-layer="layer1" /><defs
     id="defs1" /><g
     inkscape:label="Layer 1"
     inkscape:groupmode="layer"
     id="layer1"><g
       style="fill:#000000"
       id="g6"
       transform="matrix(0.76956506,0,0,0.76956506,-113.39123,625.39123)"><path
         d="M 480,-480 C 436,-480 398.33333,-495.66667 367,-527 335.66667,-558.33333 320,-596 320,-640 320,-684 335.66667,-721.66667 367,-753 398.33333,-784.33333 436,-800 480,-800 524,-800 561.66667,-784.33333 593,-753 624.33333,-721.66667 640,-684 640,-640 640,-596 624.33333,-558.33333 593,-527 561.66667,-495.66667 524,-480 480,-480 Z M 160,-160 V -272 C 160,-294.66667 165.83333,-315.5 177.5,-334.5 189.16667,-353.5 204.66667,-368 224,-378 265.33333,-398.66667 307.33333,-414.16667 350,-424.5 392.66667,-434.83333 436,-440 480,-440 524,-440 567.33333,-434.83333 610,-424.5 652.66667,-414.16667 694.66667,-398.66667 736,-378 755.33333,-368 770.83333,-353.5 782.5,-334.5 794.16667,-315.5 800,-294.66667 800,-272 V -160 Z"
         id="path1"
         style="fill:#000000"
         sodipodi:nodetypes="ssssssssscsscssscsscc" /></g><text
       xml:space="preserve"
       style="font-size:411.54px;line-height:0;font-family:Roboto;-inkscape-font-specification:Roboto;text-align:center;writing-mode:lr-tb;direction:ltr;text-anchor:middle;fill:#ffffff;stroke:#000000;stroke-width:1.1848;stroke-linecap:square;stroke-linejoin:round;stroke-miterlimit:22.1"
       x="258.28998"
       y="397.45801"
       id="text6"><tspan
         sodipodi:role="line"
         id="tspan6"
         x="258.28998"
         y="397.45801"
         style="stroke-width:1.1848">?</tspan></text><path
       style="fill:#000000;stroke:#000000;stroke-width:0.00223844;stroke-linecap:square;stroke-linejoin:round;stroke-miterlimit:22.1"
       d="M 107.06157,374.69476 C 107.06164,373.92161 107.07003,373.47508 107.09353,372.99317 107.27746,369.22215 108.22811,365.7829 109.97537,362.5672 L 110.09048,362.35535 H 110.29809 C 110.41227,362.35535 110.5057,362.35772 110.5057,362.36062 110.5057,362.36352 110.46308,362.4445 110.411,362.54058 110.03198,363.23978 109.66735,363.96523 109.40269,364.5467 108.26207,367.05269 107.7343,369.36605 107.46739,373.02961 107.42337,373.63382 107.37517,374.49979 107.35303,375.08428 107.34762,375.22711 107.34103,375.36549 107.33837,375.3918 L 107.33354,375.43964 H 107.19752 107.0615 Z"
       id="path10" /></g></svg>
